# xmcd
#
# Track frame offsets:
#	150
#	21075
#	34885
#	55150
#	73307
#	92000
#	111480
#	128730
#	146025
#	166425
#	188505
#	215370
#	215917
#	235945
#
# Disc length: 3334 seconds
#
# Revision: 1
# Processed by: cddbd v1.5.2PL0 Copyright (c) Steve Scherf et al.
# Submitted via: audiograbber 1.83.01
#
DISCID=d50d040e
DTITLE=George Nussbaumer - You Know What I Mean?
DYEAR=1900
DGENRE=Pop
TTITLE0=Louisiana 1927
TTITLE1=Round And Round
TTITLE2=Little Letter
TTITLE3=Sweet Woman
TTITLE4=Shelter Of Love
TTITLE5=Whatever Gets You Through The Night
TTITLE6=Ain't Doing Too Bad
TTITLE7=You Know What I Mean?
TTITLE8=You Gonna Make Me Cry
TTITLE9=Have A Little Faith In Me
TTITLE10=Life By The Drop
TTITLE11=George
TTITLE12=Get Back Into My Arms
TTITLE13=Life By The Drop (A Capella)
EXTD=Austrian musician
EXTT0=
EXTT1=
EXTT2=
EXTT3=
EXTT4=
EXTT5=
EXTT6=
EXTT7=
EXTT8=
EXTT9=
EXTT10=
EXTT11=
EXTT12=
EXTT13=
PLAYORDER=
